<svg width="26" height="28" viewBox="0 0 26 28" fill="none" xmlns="http://www.w3.org/2000/svg">
<g filter="url(#filter0_d_4050_52)">
<path fill-rule="evenodd" clip-rule="evenodd" d="M12.3529 -0.000117594C11.1366 -0.00173737 9.96063 0.436272 9.04175 1.23321C8.12286 2.03014 7.52294 3.13231 7.35251 4.33664C7.18209 5.54098 7.45264 6.76633 8.11433 7.78693C8.77601 8.80754 9.78424 9.55463 10.9533 9.89056C9.29206 10.0923 7.86738 10.6794 6.79331 11.7382C5.42706 13.0836 4.73559 15.0884 4.73559 17.704C4.73559 17.8793 4.80522 18.0474 4.92915 18.1713C5.05309 18.2953 5.22118 18.3649 5.39645 18.3649C5.57173 18.3649 5.73982 18.2953 5.86375 18.1713C5.98769 18.0474 6.05732 17.8793 6.05732 17.704C6.05732 15.311 6.68757 13.6971 7.7213 12.6787C8.75642 11.6589 10.3035 11.1302 12.3529 11.1302C14.4023 11.1302 14.5685 10.7191 15.605 11.7389C16.6374 12.7587 14.3007 8.04153 14.3007 10.4346C14.3007 10.6098 15.366 11.5659 15.4899 11.6898C15.605 9.56499 14.995 10.8693 15.1703 10.8693C15.3455 10.8693 15.366 11.8137 15.4899 11.6898C15.6138 11.5659 14.9845 11.3055 14.9845 11.1302C14.9845 8.51458 16.8267 12.9171 15.459 11.5703C14.3877 10.5129 15.1703 10.4346 13.7525 9.89056C14.9177 9.55085 15.9213 8.80261 16.5796 7.78299C17.2378 6.76338 17.5065 5.54068 17.3365 4.33903C17.1664 3.13737 16.569 2.03724 15.6537 1.2403C14.7384 0.443354 13.5665 0.00297596 12.3529 -0.000117594ZM8.6312 5.04331C8.6312 4.05625 9.02331 3.10962 9.72126 2.41167C10.4192 1.71371 11.3658 1.32161 12.3529 1.32161C13.34 1.32161 14.2866 1.71371 14.9845 2.41167C15.6825 3.10962 16.0746 4.05625 16.0746 5.04331C16.0746 6.03036 15.6825 6.97699 14.9845 7.67495C14.2866 8.3729 13.34 8.76501 12.3529 8.76501C11.3658 8.76501 10.4192 8.3729 9.72126 7.67495C9.02331 6.97699 8.6312 6.03036 8.6312 5.04331Z" fill="white"/>
<path d="M19.5688 11.3047H17.8731V10.725C17.8731 10.4175 17.754 10.1226 17.542 9.90513C17.33 9.6877 17.0425 9.56555 16.7427 9.56555H14.4819C14.1821 9.56555 13.8945 9.6877 13.6825 9.90513C13.4705 10.1226 13.3514 10.4175 13.3514 10.725V11.3047H11.6558C11.2061 11.3047 10.7748 11.4879 10.4568 11.814C10.1388 12.1402 9.96018 12.5825 9.96018 13.0438V18.2611C9.96018 18.7224 10.1388 19.1647 10.4568 19.4909C10.7748 19.817 11.2061 20.0002 11.6558 20.0002H19.5688C20.0185 20.0002 20.4498 19.817 20.7678 19.4909C21.0858 19.1647 21.2644 18.7224 21.2644 18.2611V13.0438C21.2644 12.5825 21.0858 12.1402 20.7678 11.814C20.4498 11.4879 20.0185 11.3047 19.5688 11.3047ZM20.134 18.2611C20.134 18.4149 20.0744 18.5623 19.9684 18.671C19.8624 18.7797 19.7187 18.8408 19.5688 18.8408H11.6558C11.5059 18.8408 11.3621 18.7797 11.2561 18.671C11.1502 18.5623 11.0906 18.4149 11.0906 18.2611V15.009L13.7358 15.9423C13.7958 15.9506 13.8566 15.9506 13.9167 15.9423H17.3079C17.3692 15.9411 17.4301 15.9314 17.4888 15.9133L20.134 15.009V18.2611ZM20.134 13.7858L17.2175 14.7829H14.0071L11.0906 13.7858V13.0438C11.0906 12.89 11.1502 12.7426 11.2561 12.6339C11.3621 12.5251 11.5059 12.4641 11.6558 12.4641H19.5688C19.7187 12.4641 19.8624 12.5251 19.9684 12.6339C20.0744 12.7426 20.134 12.89 20.134 13.0438V13.7858Z" fill="white"/>
<rect x="14.2983" y="10.4343" width="2.60867" height="0.869556" fill="#F2F2F2"/>
</g>
<defs>
<filter id="filter0_d_4050_52" x="0.735592" y="-0.00012207" width="24.5288" height="28.0003" filterUnits="userSpaceOnUse" color-interpolation-filters="sRGB">
<feFlood flood-opacity="0" result="BackgroundImageFix"/>
<feColorMatrix in="SourceAlpha" type="matrix" values="0 0 0 0 0 0 0 0 0 0 0 0 0 0 0 0 0 0 127 0" result="hardAlpha"/>
<feOffset dy="4"/>
<feGaussianBlur stdDeviation="2"/>
<feComposite in2="hardAlpha" operator="out"/>
<feColorMatrix type="matrix" values="0 0 0 0 0 0 0 0 0 0 0 0 0 0 0 0 0 0 0.25 0"/>
<feBlend mode="normal" in2="BackgroundImageFix" result="effect1_dropShadow_4050_52"/>
<feBlend mode="normal" in="SourceGraphic" in2="effect1_dropShadow_4050_52" result="shape"/>
</filter>
</defs>
</svg>
