<svg width="24" height="25" viewBox="0 0 24 25" fill="none" xmlns="http://www.w3.org/2000/svg">
<path d="M18.375 22.084H9.625C7.448 22.084 6.25 20.886 6.25 18.709V9.95898C6.25 7.78198 7.448 6.58398 9.625 6.58398H18.375C20.552 6.58398 21.75 7.78198 21.75 9.95898V18.709C21.75 20.886 20.552 22.084 18.375 22.084ZM9.625 8.08398C8.293 8.08398 7.75 8.62698 7.75 9.95898V18.709C7.75 20.041 8.293 20.584 9.625 20.584H18.375C19.707 20.584 20.25 20.041 20.25 18.709V9.95898C20.25 8.62698 19.707 8.08398 18.375 8.08398H9.625ZM3.75 15.334V5.95898C3.75 4.62698 4.293 4.08398 5.625 4.08398H15C15.414 4.08398 15.75 3.74798 15.75 3.33398C15.75 2.91998 15.414 2.58398 15 2.58398H5.625C3.448 2.58398 2.25 3.78198 2.25 5.95898V15.334C2.25 15.748 2.586 16.084 3 16.084C3.414 16.084 3.75 15.748 3.75 15.334Z" fill="#25314C"/>
</svg>
