<svg width="49" height="49" viewBox="0 0 49 49" fill="none" xmlns="http://www.w3.org/2000/svg">
<mask id="path-1-outside-1_4050_62" maskUnits="userSpaceOnUse" x="1.26562" y="10.2422" width="45" height="29" fill="black">
<rect fill="white" x="1.26562" y="10.2422" width="45" height="29"/>
<path d="M12.0541 11.2422H13.8274L15.6716 11.455L17.0902 11.8806L18.5798 12.5899L19.36 13.0864L20.2821 13.7957L21.4879 15.0015L22.3391 16.1364L23.1903 17.4841L24.1124 19.1155L24.9636 20.5342L26.0275 22.3784L27.0206 24.0807L27.9427 25.854L28.652 26.9889L29.2903 27.8401L29.8578 28.4784L30.7799 29.1877L31.7729 29.7552L32.9078 30.2517L34.0427 30.6064L35.1776 30.8192L36.1707 30.8901L37.5893 30.6773L38.7951 30.3226L40.4265 29.5424L41.5614 28.7622L42.4126 27.9819L43.051 27.2726H45.1789L44.9661 27.911L44.4696 28.8331L43.7603 29.6843L43.1928 30.1808L42.4835 30.8192L41.2068 31.5994L40.0009 32.1668L38.5114 32.6634L37.2346 32.9471L36.5253 33.018H35.3904L33.8299 32.8052L32.3404 32.4506L30.9218 31.8831L29.7869 31.2447L28.8648 30.5354L27.9427 29.6843L27.1624 28.7622L26.3112 27.5563L25.6729 26.4924L24.6798 24.79L23.9705 23.5133L22.9775 21.8109L22.0554 20.1795L20.9205 18.1225L20.0693 16.7748L19.2891 15.9236L18.5088 15.2143L17.5158 14.5759L16.5228 14.0794L15.246 13.6538L14.182 13.4411L13.6146 13.3701H12.3378L10.9192 13.5829L9.85525 13.9376L8.86221 14.505L7.86918 15.2143L7.15987 15.8527L6.80521 16.1364L6.16683 16.9167L5.52845 17.9806L4.961 19.3283L4.60635 20.5342L4.46449 21.4563V22.8039L4.67728 24.1516L5.10287 25.5703L5.81218 26.9179L6.59242 27.8401L7.2308 28.5494L8.22383 29.3296L8.93314 29.7552L9.78431 30.1808L10.8483 30.5354L11.6995 30.6773L12.4797 30.7482H13.7565L14.9623 30.6064L16.0972 30.3226L17.1611 29.8971L18.2251 29.2587L19.2181 28.4075L19.9984 27.5563L20.8496 26.2796L21.3461 25.2865L21.5589 24.79L21.8426 24.9319L22.481 25.7121L23.1903 26.4924L23.0484 26.847L22.6228 27.6273L21.8426 28.7622L20.9914 29.7552L20.0693 30.6064L18.9344 31.3866L17.4449 32.1668L16.239 32.5924L14.8204 32.8762L13.4727 33.018H12.5506L11.4157 32.8762L9.78431 32.5215L8.36569 31.9541L7.30173 31.3866L6.45056 30.8192L5.45752 30.0389L4.46449 29.1168L4.25169 29.0459V37.6995L4.10983 37.8413H2.40749L2.26562 37.5576V20.7469L2.54935 19.3283L3.18773 17.4841L3.75518 16.4911L4.60635 15.2853L5.1738 14.5759H5.31566L5.45752 14.2922L5.67031 14.2213V14.0794L6.45056 13.4411L7.51452 12.7317L8.86221 12.0224L9.99711 11.5968L11.3448 11.3131L12.0541 11.2422Z"/>
</mask>
<path d="M12.0541 11.2422H13.8274L15.6716 11.455L17.0902 11.8806L18.5798 12.5899L19.36 13.0864L20.2821 13.7957L21.4879 15.0015L22.3391 16.1364L23.1903 17.4841L24.1124 19.1155L24.9636 20.5342L26.0275 22.3784L27.0206 24.0807L27.9427 25.854L28.652 26.9889L29.2903 27.8401L29.8578 28.4784L30.7799 29.1877L31.7729 29.7552L32.9078 30.2517L34.0427 30.6064L35.1776 30.8192L36.1707 30.8901L37.5893 30.6773L38.7951 30.3226L40.4265 29.5424L41.5614 28.7622L42.4126 27.9819L43.051 27.2726H45.1789L44.9661 27.911L44.4696 28.8331L43.7603 29.6843L43.1928 30.1808L42.4835 30.8192L41.2068 31.5994L40.0009 32.1668L38.5114 32.6634L37.2346 32.9471L36.5253 33.018H35.3904L33.8299 32.8052L32.3404 32.4506L30.9218 31.8831L29.7869 31.2447L28.8648 30.5354L27.9427 29.6843L27.1624 28.7622L26.3112 27.5563L25.6729 26.4924L24.6798 24.79L23.9705 23.5133L22.9775 21.8109L22.0554 20.1795L20.9205 18.1225L20.0693 16.7748L19.2891 15.9236L18.5088 15.2143L17.5158 14.5759L16.5228 14.0794L15.246 13.6538L14.182 13.4411L13.6146 13.3701H12.3378L10.9192 13.5829L9.85525 13.9376L8.86221 14.505L7.86918 15.2143L7.15987 15.8527L6.80521 16.1364L6.16683 16.9167L5.52845 17.9806L4.961 19.3283L4.60635 20.5342L4.46449 21.4563V22.8039L4.67728 24.1516L5.10287 25.5703L5.81218 26.9179L6.59242 27.8401L7.2308 28.5494L8.22383 29.3296L8.93314 29.7552L9.78431 30.1808L10.8483 30.5354L11.6995 30.6773L12.4797 30.7482H13.7565L14.9623 30.6064L16.0972 30.3226L17.1611 29.8971L18.2251 29.2587L19.2181 28.4075L19.9984 27.5563L20.8496 26.2796L21.3461 25.2865L21.5589 24.79L21.8426 24.9319L22.481 25.7121L23.1903 26.4924L23.0484 26.847L22.6228 27.6273L21.8426 28.7622L20.9914 29.7552L20.0693 30.6064L18.9344 31.3866L17.4449 32.1668L16.239 32.5924L14.8204 32.8762L13.4727 33.018H12.5506L11.4157 32.8762L9.78431 32.5215L8.36569 31.9541L7.30173 31.3866L6.45056 30.8192L5.45752 30.0389L4.46449 29.1168L4.25169 29.0459V37.6995L4.10983 37.8413H2.40749L2.26562 37.5576V20.7469L2.54935 19.3283L3.18773 17.4841L3.75518 16.4911L4.60635 15.2853L5.1738 14.5759H5.31566L5.45752 14.2922L5.67031 14.2213V14.0794L6.45056 13.4411L7.51452 12.7317L8.86221 12.0224L9.99711 11.5968L11.3448 11.3131L12.0541 11.2422Z" fill="#FEFEFE"/>
<path d="M12.0541 11.2422H13.8274L15.6716 11.455L17.0902 11.8806L18.5798 12.5899L19.36 13.0864L20.2821 13.7957L21.4879 15.0015L22.3391 16.1364L23.1903 17.4841L24.1124 19.1155L24.9636 20.5342L26.0275 22.3784L27.0206 24.0807L27.9427 25.854L28.652 26.9889L29.2903 27.8401L29.8578 28.4784L30.7799 29.1877L31.7729 29.7552L32.9078 30.2517L34.0427 30.6064L35.1776 30.8192L36.1707 30.8901L37.5893 30.6773L38.7951 30.3226L40.4265 29.5424L41.5614 28.7622L42.4126 27.9819L43.051 27.2726H45.1789L44.9661 27.911L44.4696 28.8331L43.7603 29.6843L43.1928 30.1808L42.4835 30.8192L41.2068 31.5994L40.0009 32.1668L38.5114 32.6634L37.2346 32.9471L36.5253 33.018H35.3904L33.8299 32.8052L32.3404 32.4506L30.9218 31.8831L29.7869 31.2447L28.8648 30.5354L27.9427 29.6843L27.1624 28.7622L26.3112 27.5563L25.6729 26.4924L24.6798 24.79L23.9705 23.5133L22.9775 21.8109L22.0554 20.1795L20.9205 18.1225L20.0693 16.7748L19.2891 15.9236L18.5088 15.2143L17.5158 14.5759L16.5228 14.0794L15.246 13.6538L14.182 13.4411L13.6146 13.3701H12.3378L10.9192 13.5829L9.85525 13.9376L8.86221 14.505L7.86918 15.2143L7.15987 15.8527L6.80521 16.1364L6.16683 16.9167L5.52845 17.9806L4.961 19.3283L4.60635 20.5342L4.46449 21.4563V22.8039L4.67728 24.1516L5.10287 25.5703L5.81218 26.9179L6.59242 27.8401L7.2308 28.5494L8.22383 29.3296L8.93314 29.7552L9.78431 30.1808L10.8483 30.5354L11.6995 30.6773L12.4797 30.7482H13.7565L14.9623 30.6064L16.0972 30.3226L17.1611 29.8971L18.2251 29.2587L19.2181 28.4075L19.9984 27.5563L20.8496 26.2796L21.3461 25.2865L21.5589 24.79L21.8426 24.9319L22.481 25.7121L23.1903 26.4924L23.0484 26.847L22.6228 27.6273L21.8426 28.7622L20.9914 29.7552L20.0693 30.6064L18.9344 31.3866L17.4449 32.1668L16.239 32.5924L14.8204 32.8762L13.4727 33.018H12.5506L11.4157 32.8762L9.78431 32.5215L8.36569 31.9541L7.30173 31.3866L6.45056 30.8192L5.45752 30.0389L4.46449 29.1168L4.25169 29.0459V37.6995L4.10983 37.8413H2.40749L2.26562 37.5576V20.7469L2.54935 19.3283L3.18773 17.4841L3.75518 16.4911L4.60635 15.2853L5.1738 14.5759H5.31566L5.45752 14.2922L5.67031 14.2213V14.0794L6.45056 13.4411L7.51452 12.7317L8.86221 12.0224L9.99711 11.5968L11.3448 11.3131L12.0541 11.2422Z" stroke="#FEFEFE" stroke-width="0.91875" mask="url(#path-1-outside-1_4050_62)"/>
<path d="M46.9736 22.249L46.9727 22.2598L46.9023 22.9697L46.8936 23.0508L46.6973 23.2471H35.6562L35.6338 23.2422L35.2793 23.1719L35.0947 23.1348V20.7305H44.2422L43.833 19.2676L43.2773 18.0176L42.6592 17.0557L41.8984 16.1562L41.2119 15.5381L40.1709 14.8447L39.0674 14.293L37.4004 13.7373L36.373 13.6006H35.6162L34.3682 13.7393L32.7754 14.1553L31.6787 14.6357L30.79 15.25L29.8828 16.0859L29.8838 16.0869L29.3291 16.6396L28.6357 17.54L27.9443 18.7842L27.5918 19.6299L27.4971 19.8574L27.2773 19.7471L26.9941 19.6055L26.96 19.5889L26.9336 19.5625L26.083 18.7109L26.0605 18.6885L26.0449 18.6602L25.6895 18.0215L25.6348 17.9229L25.6807 17.8184L26.1768 16.6836L26.1826 16.6699L26.1904 16.6572L26.8281 15.5938L26.8398 15.5762L27.4072 14.7959L27.4209 14.7783L27.9883 14.1406L27.998 14.1299L28.0088 14.1201L28.5762 13.623L28.582 13.6182L29.3623 12.9805L29.376 12.9697L29.3896 12.9609L30.8086 12.1094L30.8203 12.1025L30.833 12.0967L32.1104 11.5293L32.126 11.5225L32.1416 11.5176L33.4189 11.1631L33.4287 11.1602L33.4395 11.1582L34.2197 11.0166L34.2314 11.0146L34.2432 11.0137L35.165 10.9424H35.9736L35.9844 10.9434L37.4746 11.085L37.4863 11.0859L37.4971 11.0889L38.916 11.3721L38.9316 11.375L38.9473 11.3809L40.3652 11.877L40.3818 11.8828L40.3965 11.8906L41.7441 12.5996L41.7607 12.6084L41.7754 12.6191L42.9102 13.4707L42.9199 13.4785L42.9287 13.4863L43.9932 14.4795L44.0029 14.4893L44.0117 14.499L44.792 15.4209L44.8018 15.4326L44.8096 15.4453L45.4482 16.4385L45.4531 16.4463L45.458 16.4551L46.0957 17.6611L46.1035 17.6748L46.1084 17.6895L46.6055 19.0371L46.6113 19.0537L46.6152 19.0713L46.8984 20.4893L46.9014 20.5029L46.9023 20.5156L46.9736 21.3672V22.249Z" fill="#FEFEFE" stroke="#FEFEFE" stroke-width="0.459375"/>
</svg>
