<svg width="28" height="20" viewBox="0 0 28 20" fill="none" xmlns="http://www.w3.org/2000/svg">
<path d="M13.9988 0C12.728 0 11.4988 0.28125 10.3113 0.84375C9.22796 1.36458 8.25921 2.10417 7.40505 3.0625L7.2488 3.03125C7.14463 3.01042 7.0613 3 6.9988 3C6.26963 3 5.60296 3.1875 4.9988 3.5625C4.39463 3.91667 3.90505 4.39583 3.53005 5C3.17588 5.60417 2.9988 6.27083 2.9988 7C2.10296 7.54167 1.38421 8.23958 0.842547 9.09375C0.280047 9.98958 -0.00120258 10.9688 -0.00120258 12.0312C-0.00120258 13.0938 0.269631 14.0833 0.811297 15C1.35296 15.9167 2.08213 16.6458 2.9988 17.1875C3.91546 17.7292 4.91546 18 5.9988 18H10.9988V16H5.9988C5.26963 16 4.59255 15.8229 3.96755 15.4688C3.36338 15.1146 2.88421 14.6354 2.53005 14.0312C2.17588 13.4062 1.9988 12.7292 1.9988 12C1.9988 11.1875 2.21755 10.4479 2.65505 9.78125C3.11338 9.11458 3.70713 8.625 4.4363 8.3125L5.1238 8.03125L4.9988 7C4.9988 6.4375 5.1863 5.96875 5.5613 5.59375C5.95713 5.19792 6.4363 5 6.9988 5C7.14463 5 7.30088 5.02083 7.46755 5.0625L8.09255 5.21875L8.46755 4.71875C9.11338 3.88542 9.91546 3.22917 10.8738 2.75C11.853 2.25 12.8842 2 13.9675 2C15.0509 2 16.0613 2.22917 16.9988 2.6875C17.9571 3.14583 18.7592 3.78125 19.405 4.59375C20.0717 5.38542 20.53 6.28125 20.78 7.28125L20.9675 8.0625L21.8113 8.03125C22.1863 8.01042 22.2488 8 21.9988 8C22.728 8 23.3946 8.17708 23.9988 8.53125C24.6238 8.88542 25.1134 9.375 25.4675 10C25.8217 10.6042 25.9988 11.2708 25.9988 12C25.9988 12.7292 25.8217 13.4062 25.4675 14.0312C25.1134 14.6354 24.6238 15.1146 23.9988 15.4688C23.3946 15.8229 22.728 16 21.9988 16H16.9988V18H21.9988C23.0821 18 24.0821 17.7292 24.9988 17.1875C25.9155 16.6458 26.6446 15.9167 27.1863 15C27.728 14.0833 27.9988 13.0833 27.9988 12C27.9988 10.9583 27.7488 10 27.2488 9.125C26.7488 8.25 26.0717 7.55208 25.2175 7.03125C24.3634 6.48958 23.4259 6.17708 22.405 6.09375C21.9884 4.92708 21.3634 3.88542 20.53 2.96875C19.7175 2.03125 18.7592 1.3125 17.655 0.8125C16.5092 0.270833 15.2905 0 13.9988 0ZM13.9988 8L9.9988 12H12.9988V20H14.9988V12H17.9988L13.9988 8Z" fill="#603AE5"/>
</svg>
